<svg xmlns="http://www.w3.org/2000/svg" width="200" height="18.709" viewBox="0 0 200 18.709">
	<g id="logo" transform="translate(-161.002 -43.706)">
		<path id="NHBank" d="M45.831,18.167V10.584H32.222v7.583H28.9a1.426,1.426,0,0,1-1.435-1.425V1.427A1.43,1.43,0,0,1,28.9,0h3.325V7.049H45.831V0h3.326a1.431,1.431,0,0,1,1.431,1.427V16.742a1.427,1.427,0,0,1-1.431,1.425Zm-25,0c-2.467,0-3.98-1.279-5.682-2.937L4.755,4.709V18.167H1.43A1.426,1.426,0,0,1,0,16.742V0H2.915c2.659,0,3.8,1.174,5.465,2.8L18.858,13.387V0h3.333a1.43,1.43,0,0,1,1.43,1.427V18.167ZM90.9,15.161a1.518,1.518,0,0,1-1.358-.669s-3.343-3.642-3.482-3.8v4.469h-.817a.9.9,0,0,1-.9-.89V3.321a.9.9,0,0,1,.9-.892h.817V9.776c.43-.424,2.874-2.791,2.884-2.8a2,2,0,0,1,1.482-.733h1.484s-4.109,3.9-4.166,3.958c.058.059,4.672,4.959,4.672,4.959Zm-10.273,0V10.642c0-2.125-.479-2.9-1.828-2.987H76.6v7.507h-.818a.893.893,0,0,1-.9-.89V6.244h4.1c2.2,0,3.357,1.331,3.357,3.833v4.2a.894.894,0,0,1-.9.89Zm-12.007,0c-2.115,0-3.29-.948-3.29-2.669,0-2.271,2.724-2.867,4.159-2.867.614,0,1.077,0,1.691.03-.02-1.571-.636-2.212-2.144-2.212A4.112,4.112,0,0,0,66.5,8.33l-.073.051V6.835l.019-.009a5.643,5.643,0,0,1,2.849-.784c2.457,0,3.6,1.173,3.6,3.691v4.538a.9.9,0,0,1-.9.89Zm-1.466-2.669a1.5,1.5,0,0,0,1.607,1.325l2.419.006V10.952l-1-.029C69.267,10.923,67.152,11.076,67.152,12.493Zm-10.2,2.669a.892.892,0,0,1-.9-.89V3.89a.9.9,0,0,1,.9-.9h2.427c2.853,0,4.3,1.043,4.3,3.1a2.9,2.9,0,0,1-2.137,2.88,2.9,2.9,0,0,1,2.45,2.93c0,2.2-1.523,3.266-4.662,3.266Zm.933-1.508h1.249c2.027,0,2.927-.584,2.927-1.908,0-1.851-1.651-2.089-3.1-2.089H57.887Zm0-5.5h.9c1.677,0,3.068-.142,3.068-1.892,0-1.59-1.537-1.759-2.193-1.759H57.887Z" transform="translate(161.002 43.707)" fill="#fff"/>
		<g id="NH농협" transform="translate(265.081 43.71)">
			<path id="Shape_1_copy" data-name="Shape 1 copy" d="M45.831,18.436v-7.7H32.222v7.7H28.9a1.437,1.437,0,0,1-1.435-1.446V1.448A1.441,1.441,0,0,1,28.9,0h3.325V7.154H45.831V0h3.326a1.442,1.442,0,0,1,1.431,1.448V16.99a1.438,1.438,0,0,1-1.431,1.446Zm-25,0c-2.467,0-3.98-1.3-5.682-2.981L4.755,4.779V18.436H1.43A1.437,1.437,0,0,1,0,16.99V0H2.915c2.659,0,3.8,1.192,5.465,2.845l10.478,10.74V0h3.333a1.441,1.441,0,0,1,1.43,1.448V18.436Z" transform="translate(0 0)" fill="#fff"/>
			<path id="Shape_2" data-name="Shape 2" d="M1.621,13.642a3.893,3.893,0,0,1,1.833-3.314H.845L0,9.037H8.742V6.565H2.648a1.362,1.362,0,0,1-1.387-1.33V.346H3.506a.717.717,0,0,1,.729.708v3.52a.724.724,0,0,0,.731.706H19.253A.249.249,0,0,1,19.5,5.5a2.793,2.793,0,0,1,0,.811.26.26,0,0,1-.247.253H11.72V9.037h7.921a.249.249,0,0,1,.245.224,2.868,2.868,0,0,1,0,.806.262.262,0,0,1-.243.261H10.21l.04.007c-3.17,0-5.669,1.081-5.669,3.459s2.535,3.461,5.669,3.461,5.673-1.085,5.673-3.461a2.821,2.821,0,0,0-1.4-2.466h3.594a3.69,3.69,0,0,1,.765,2.314c0,3.385-3.866,4.928-8.633,4.928S1.621,17.027,1.621,13.642Zm22.987,4.116a1.365,1.365,0,0,1-1.388-1.329V10.58h2.239a.718.718,0,0,1,.735.707V12.6h10.9V7.9h-4.1a6.267,6.267,0,0,1-5.146,2.184c-3.54,0-5.926-1.932-5.926-4.329A3.855,3.855,0,0,1,23.68,2.671H21.552c-.033-.048-.725-1.115-.841-1.283h5.64V0H28.6a.716.716,0,0,1,.733.7v.689h4.955a.244.244,0,0,1,.245.219,2.752,2.752,0,0,1,0,.81.259.259,0,0,1-.241.254H27.8a3.027,3.027,0,0,0-2.977,3.083,3.015,3.015,0,1,0,6.029,0,3.127,3.127,0,0,0-.4-1.52,2.891,2.891,0,0,0-.4-.565h7.031V.346h2.255a.721.721,0,0,1,.736.706V17.758Zm1.586-1.677a.394.394,0,0,0,.4.393h10.5V13.88h-10.9ZM33.76,5.754a3.216,3.216,0,0,1-.118.862h3.45V4.952H33.659A3.369,3.369,0,0,1,33.76,5.754Z" transform="translate(55.837 0.136)" fill="#fff"/>
		</g>
		</g>
</svg>
